<svg width="21" height="21" viewBox="0 0 21 21" fill="none" xmlns="http://www.w3.org/2000/svg">
<path d="M20.3055 8.49151H19.5V8.45001H10.5V12.45H16.1515C15.327 14.7785 13.1115 16.45 10.5 16.45C7.1865 16.45 4.5 13.7635 4.5 10.45C4.5 7.13651 7.1865 4.45001 10.5 4.45001C12.0295 4.45001 13.421 5.02701 14.4805 5.96951L17.309 3.14101C15.523 1.47651 13.134 0.450012 10.5 0.450012C4.9775 0.450012 0.5 4.92751 0.5 10.45C0.5 15.9725 4.9775 20.45 10.5 20.45C16.0225 20.45 20.5 15.9725 20.5 10.45C20.5 9.77951 20.431 9.12501 20.3055 8.49151Z" fill="#FFC107"/>
<path d="M1.65308 5.79551L4.93857 8.20501C5.82757 6.00401 7.98057 4.45001 10.5001 4.45001C12.0296 4.45001 13.4211 5.02701 14.4806 5.96951L17.3091 3.14101C15.5231 1.47651 13.1341 0.450012 10.5001 0.450012C6.65907 0.450012 3.32808 2.61851 1.65308 5.79551Z" fill="#FF3D00"/>
<path d="M10.4999 20.45C13.0829 20.45 15.4299 19.4615 17.2044 17.854L14.1094 15.235C13.0717 16.0242 11.8036 16.4511 10.4999 16.45C7.89891 16.45 5.69041 14.7915 4.85841 12.477L1.59741 14.9895C3.25241 18.228 6.61341 20.45 10.4999 20.45Z" fill="#4CAF50"/>
<path d="M20.3055 8.49151H19.5V8.45001H10.5V12.45H16.1515C15.7571 13.5582 15.0467 14.5266 14.108 15.2355L14.1095 15.2345L17.2045 17.8535C16.9855 18.0525 20.5 15.45 20.5 10.45C20.5 9.77951 20.431 9.12501 20.3055 8.49151Z" fill="#1976D2"/>
</svg>
