<svg width="400" height="401" viewBox="0 0 400 401" fill="none" xmlns="http://www.w3.org/2000/svg">
<path d="M83.1203 257.774L75.4759 259.143L73.9743 250.944L64.892 252.575L66.3936 260.774L58.7583 262.143L60.4601 271.45L68.0954 270.081L69.597 278.28L78.6793 276.658L77.1777 268.45L84.8221 267.081L83.1203 257.774Z" stroke="#2B69B7" stroke-linecap="round" stroke-linejoin="round"/>
<path d="M159.437 132.179L152.111 129.62L154.914 121.764L146.214 118.718L143.411 126.575L136.085 124.016L132.909 132.936L140.225 135.494L137.423 143.36L146.123 146.396L148.935 138.54L156.251 141.098L159.437 132.179Z" stroke="#2B69B7" stroke-linecap="round" stroke-linejoin="round"/>
<path d="M344.213 226.078L337.352 229.673L333.411 222.303L325.248 226.573L329.188 233.943L322.327 237.538L326.795 245.899L333.657 242.304L337.597 249.665L345.76 245.394L341.82 238.025L348.682 234.43L344.213 226.078Z" stroke="#2B69B7" stroke-linecap="round" stroke-linejoin="round"/>
<path d="M51.196 238.241C54.2719 238.241 56.7655 235.772 56.7655 232.727C56.7655 229.682 54.2719 227.213 51.196 227.213C48.12 227.213 45.6265 229.682 45.6265 232.727C45.6265 235.772 48.12 238.241 51.196 238.241Z" stroke="#2B69B7" stroke-linecap="round" stroke-linejoin="round"/>
<path d="M137.951 159.01C137.951 159.298 137.865 159.581 137.703 159.821C137.541 160.061 137.31 160.248 137.041 160.358C136.772 160.469 136.475 160.498 136.189 160.441C135.903 160.385 135.64 160.246 135.434 160.042C135.228 159.838 135.088 159.578 135.031 159.294C134.974 159.011 135.003 158.718 135.115 158.451C135.226 158.184 135.415 157.957 135.658 157.796C135.9 157.636 136.185 157.55 136.477 157.55C136.868 157.55 137.243 157.704 137.519 157.978C137.796 158.251 137.951 158.623 137.951 159.01Z" stroke="#2B69B7" stroke-linecap="round" stroke-linejoin="round"/>
<path d="M70.4891 133.972C70.4891 134.991 70.1838 135.988 69.6118 136.835C69.0398 137.682 68.2268 138.343 67.2757 138.733C66.3245 139.123 65.2778 139.225 64.2681 139.026C63.2583 138.828 62.3308 138.337 61.6028 137.616C60.8748 136.895 60.379 135.977 60.1781 134.977C59.9773 133.978 60.0804 132.941 60.4744 132C60.8684 131.058 61.5356 130.253 62.3916 129.687C63.2476 129.121 64.2541 128.818 65.2836 128.818C66.6634 128.821 67.9861 129.364 68.9618 130.33C69.9375 131.296 70.4867 132.606 70.4891 133.972Z" stroke="#2B69B7" stroke-linecap="round" stroke-linejoin="round"/>
<path d="M299.848 203.779C299.848 204.356 299.675 204.92 299.351 205.4C299.027 205.881 298.567 206.255 298.028 206.476C297.489 206.697 296.896 206.754 296.324 206.642C295.753 206.529 295.227 206.251 294.815 205.843C294.402 205.435 294.122 204.914 294.008 204.348C293.894 203.782 293.952 203.195 294.176 202.662C294.399 202.128 294.777 201.672 295.262 201.352C295.746 201.031 296.317 200.86 296.9 200.86C297.682 200.86 298.432 201.167 298.985 201.715C299.538 202.262 299.848 203.004 299.848 203.779Z" stroke="#2B69B7" stroke-linecap="round" stroke-linejoin="round"/>
<path d="M270.044 114.808C273.688 114.808 276.642 111.884 276.642 108.276C276.642 104.669 273.688 101.744 270.044 101.744C266.4 101.744 263.447 104.669 263.447 108.276C263.447 111.884 266.4 114.808 270.044 114.808Z" stroke="#2B69B7" stroke-linecap="round" stroke-linejoin="round"/>
<path d="M229.42 166.992C229.766 167.505 240.204 169.569 245.619 177.362C248.769 181.839 251.412 186.646 253.5 191.696C253.5 191.696 262.555 197.03 267.196 201.427C271.837 205.824 277.37 211.662 281.638 214.725C285.906 217.788 294.688 223.6 296.9 230.402C296.9 230.402 283.731 266.107 280.009 274C276.287 281.892 267.105 298.641 267.105 298.641L250.724 367.538H155.706L152.466 343.906C152.466 343.906 123.344 338.248 111.177 327.688C111.177 327.688 110.03 301.56 115.118 278.252C120.205 254.944 137.505 206.481 149.226 191.678C149.226 191.678 167.946 182.813 184.463 179.966C184.463 179.966 195.184 171.578 202.2 170.686C209.217 169.794 229.42 166.992 229.42 166.992Z" fill="white"/>
<path d="M153.749 354.555C162.186 356.15 169.539 357.528 178.13 357.429C186.721 357.33 195.493 355.42 202.519 350.546C203.876 349.427 205.415 348.544 207.069 347.933C210.8 346.897 214.495 349.338 218.199 350.474C222.895 351.915 228.046 351.23 232.651 349.501C237.256 347.771 241.396 345.077 245.501 342.392C244.894 350.681 244.697 358.985 244.909 367.304L250.761 367.538L265.749 302.245C265.749 302.245 240.113 331.725 227.618 340.527L203.647 334.418C203.647 334.418 201.391 336.274 196.64 337.211C196.64 337.211 194.465 345.491 182.234 345.509C170.003 345.527 152.466 343.906 152.466 343.906L153.749 354.555Z" fill="#2B69B7"/>
<path opacity="0.5" d="M153.749 354.555C162.186 356.15 169.539 357.528 178.13 357.429C186.721 357.33 195.493 355.42 202.519 350.546C203.876 349.427 205.415 348.544 207.069 347.933C210.8 346.897 214.495 349.338 218.199 350.474C222.895 351.915 228.046 351.23 232.651 349.501C237.256 347.771 241.396 345.077 245.501 342.392C244.894 350.681 244.697 358.985 244.909 367.304L250.761 367.538L265.749 302.245C265.749 302.245 240.113 331.725 227.618 340.527L203.647 334.418C203.647 334.418 201.391 336.274 196.64 337.211C196.64 337.211 194.465 345.491 182.234 345.509C170.003 345.527 152.466 343.906 152.466 343.906L153.749 354.555Z" fill="white"/>
<path d="M129.187 232.726C129.187 232.726 118.057 286.217 118.621 304.587C118.621 304.587 133.746 300.389 144.303 304.587C144.303 304.587 126.338 302.605 118.603 310.759C110.867 318.913 134.674 340.338 182.306 335.986C182.306 335.986 191.807 338.932 196.63 337.202C196.63 337.202 195.338 345.726 182.224 345.5C169.165 344.987 130.961 344.671 111.168 327.697C111.177 327.706 108.683 278.532 129.187 232.726Z" fill="#2B69B7"/>
<path opacity="0.6" d="M129.187 232.726C129.187 232.726 118.057 286.217 118.621 304.587C118.621 304.587 133.746 300.389 144.303 304.587C144.303 304.587 126.338 302.605 118.603 310.759C110.867 318.913 134.674 340.338 182.306 335.986C182.306 335.986 191.807 338.932 196.63 337.202C196.63 337.202 195.338 345.726 182.224 345.5C169.165 344.987 130.961 344.671 111.168 327.697C111.177 327.706 108.683 278.532 129.187 232.726Z" fill="white"/>
<path d="M151.947 242.979C151.947 242.979 155.233 266.666 160.538 271.621C165.844 276.576 190.57 274.955 200.362 280.297C200.362 280.297 209.581 264.485 226.253 254.593L203.647 289.83L184.108 285.262L160.256 281.658L158.254 286.217H154.668C154.668 286.217 154.268 260.936 151.947 242.979Z" fill="#2B69B7"/>
<path opacity="0.5" d="M151.947 242.979C151.947 242.979 155.233 266.666 160.538 271.621C165.844 276.576 190.57 274.955 200.362 280.297C200.362 280.297 209.581 264.485 226.253 254.593L203.647 289.83L184.108 285.262L160.256 281.658L158.254 286.217H154.668C154.668 286.217 154.268 260.936 151.947 242.979Z" fill="white"/>
<path d="M245.401 194.733C255.62 200.688 256.767 207.4 258.869 212.193C253.555 213.239 248.058 214.356 243.672 217.5C238.211 221.428 235.254 227.933 232.96 234.249C230.791 240.226 228.968 246.32 227.5 252.503C232.44 243.668 239.461 236.145 247.967 230.573C252.872 227.366 258.933 224.78 264.53 226.591C259.834 228.564 254.519 231.231 253.527 236.186C253.332 237.009 253.367 237.868 253.627 238.673C254.465 241.006 257.395 241.637 259.616 242.772C263.947 244.98 266.204 249.98 266.395 254.827C266.587 259.674 265.085 264.359 263.602 268.945C262.297 272.964 260.993 276.982 259.688 281C258.023 286.136 256.33 291.343 253.318 295.848C250.306 300.353 245.783 304.128 240.404 305.011C238.156 305.44 235.828 305.179 233.734 304.263C232.146 303.409 230.67 302.365 229.338 301.155C222.886 295.996 215.132 292.681 206.915 291.569C217.489 298.488 222.495 311.056 226.881 322.832C224.867 319.342 221.965 316.434 218.463 314.399C217.566 313.78 216.499 313.447 215.405 313.444C212.53 313.669 211.62 317.3 209.891 319.571C207.816 322.274 204.021 323.238 200.617 322.805C197.214 322.373 194.083 320.796 191.025 319.201L152.339 299.452L149.609 307.561C149.609 307.561 180.423 331.887 227.636 340.491C227.636 340.491 258.305 316.498 269.171 295.227C280.037 273.955 296.918 230.357 296.918 230.357C296.918 230.357 290.739 218.77 280.146 212.725C280.146 212.725 272.238 209.022 270.573 204.445C268.907 199.868 254.046 191.967 254.046 191.967C254.046 191.967 255.975 196.85 245.401 194.733Z" fill="#2B69B7"/>
<path opacity="0.6" d="M245.401 194.733C255.62 200.688 256.767 207.4 258.869 212.193C253.555 213.239 248.058 214.356 243.672 217.5C238.211 221.428 235.254 227.933 232.96 234.249C230.791 240.226 228.968 246.32 227.5 252.503C232.44 243.668 239.461 236.145 247.967 230.573C252.872 227.366 258.933 224.78 264.53 226.591C259.834 228.564 254.519 231.231 253.527 236.186C253.332 237.009 253.367 237.868 253.627 238.673C254.465 241.006 257.395 241.637 259.616 242.772C263.947 244.98 266.204 249.98 266.395 254.827C266.587 259.674 265.085 264.359 263.602 268.945C262.297 272.964 260.993 276.982 259.688 281C258.023 286.136 256.33 291.343 253.318 295.848C250.306 300.353 245.783 304.128 240.404 305.011C238.156 305.44 235.828 305.179 233.734 304.263C232.146 303.409 230.67 302.365 229.338 301.155C222.886 295.996 215.132 292.681 206.915 291.569C217.489 298.488 222.495 311.056 226.881 322.832C224.867 319.342 221.965 316.434 218.463 314.399C217.566 313.78 216.499 313.447 215.405 313.444C212.53 313.669 211.62 317.3 209.891 319.571C207.816 322.274 204.021 323.238 200.617 322.805C197.214 322.373 194.083 320.796 191.025 319.201L152.339 299.452L149.609 307.561C149.609 307.561 180.423 331.887 227.636 340.491C227.636 340.491 258.305 316.498 269.171 295.227C280.037 273.955 296.918 230.357 296.918 230.357C296.918 230.357 290.739 218.77 280.146 212.725C280.146 212.725 272.238 209.022 270.573 204.445C268.907 199.868 254.046 191.967 254.046 191.967C254.046 191.967 255.975 196.85 245.401 194.733Z" fill="white"/>
<path d="M242.151 111.799C242.151 111.799 244.217 87.9501 233.833 85.6707C223.45 83.3912 217.616 73.9581 217.616 73.9581L180.778 84.139L175.062 106.069L178.703 117.168C178.703 117.168 179.467 127.467 179.613 132.557C179.758 137.647 179.613 141.567 183.508 147.747C187.403 153.928 191.025 160.063 199.443 165.406V179.452C199.443 179.452 194.237 194.489 197.113 203.715C197.113 203.715 198.833 205.517 203.583 202.814C208.334 200.111 228.655 186.669 235.745 172.632L237.947 136.945C237.947 136.945 243.798 137.846 246.319 132.566C250.023 127.403 249.878 121.385 248.44 116.484C247.002 111.582 240.814 114.754 240.814 114.754L242.151 111.799Z" fill="#999999"/>
<path d="M199.843 146.765C200.885 145.642 202.169 144.766 203.599 144.201C205.03 143.637 206.57 143.398 208.107 143.504C208.107 143.504 212.538 136.575 217.207 137.846C217.207 137.846 218.645 145.189 213.048 148.081C205.768 151.838 199.843 146.765 199.843 146.765Z" fill="#737373"/>
<path d="M186.156 81.1028C186.156 81.1028 177.337 92.5721 177.847 104.528C178.357 116.484 180.113 124.962 179.603 134.188C179.094 143.414 188.922 158.865 198.996 165.091C206.523 169.749 215.96 168.956 223.286 164.19C231.476 158.784 235.981 149.072 237.628 139.747C237.792 138.846 237.919 137.945 238.01 136.972" stroke="#263238" stroke-linecap="round" stroke-linejoin="round"/>
<path d="M198.997 165.1C198.997 165.1 200.425 178.02 198.997 182.443C197.422 187.3 195.52 198.607 197.177 203.715C198.833 208.824 229.82 187.354 235.808 172.623C235.808 172.623 236.636 143.999 238.702 136.845" stroke="#263238" stroke-linecap="round" stroke-linejoin="round"/>
<path d="M198.141 146.45C198.141 146.45 212.238 150.396 218.007 135.99" stroke="#263238" stroke-linecap="round" stroke-linejoin="round"/>
<path d="M199.279 168.208C199.279 168.208 202.282 177.425 208.762 177.975C215.242 178.524 231.45 165.668 236.974 150.522V142.945C236.974 142.945 232.423 162.766 219.1 166.37C205.777 169.974 199.543 165.388 199.543 165.388L199.279 168.208Z" fill="#263238"/>
<path d="M217.198 137.846C210.937 137.413 208.097 143.504 208.097 143.504C206.554 143.317 204.988 143.518 203.544 144.088C202.1 144.658 200.824 145.579 199.834 146.765C201.377 148.135 203.273 149.054 205.312 149.42C207.351 149.786 209.452 149.584 211.382 148.837C218.499 146.387 217.198 137.846 217.198 137.846Z" stroke="#263238" stroke-linecap="round" stroke-linejoin="round"/>
<path d="M201.5 110.673C201.577 113.531 201.45 116.391 201.117 119.232C200.781 121.781 199.588 124.223 198.597 126.62C197.686 128.8 196.167 132.152 197.432 134.449C198.87 137.053 203.647 134.449 203.647 134.449" stroke="#263238" stroke-linecap="round" stroke-linejoin="round"/>
<path d="M206.587 133.908C208.198 134.125 210.482 133.908 210.937 131.142" stroke="#263238" stroke-linecap="round" stroke-linejoin="round"/>
<path d="M211.792 107.231C213.35 105.76 215.419 104.94 217.571 104.94C219.723 104.94 221.793 105.76 223.35 107.231" stroke="#263238" stroke-width="2" stroke-linecap="round" stroke-linejoin="round"/>
<path d="M193.428 109.483C193.428 109.483 189.159 104.077 183.572 109.483" stroke="#263238" stroke-width="2" stroke-linecap="round" stroke-linejoin="round"/>
<path d="M234.662 123.151C234.662 123.151 239.53 111.573 245.883 114.06C250.26 115.781 250.524 123.259 248.203 128.475C245.883 133.692 244.718 139.008 236.982 136.035" stroke="#263238" stroke-linecap="round" stroke-linejoin="round"/>
<path d="M235.526 121.376C235.526 121.376 230.848 119.736 229.984 112.213C229.119 104.69 233.779 97.1581 232.05 91.7523C230.32 86.3465 216.697 89.0494 213.594 79.6253C213.594 79.6253 203.365 87.1754 183.562 85.5536C183.562 85.5536 179.385 92.5992 178.657 96.9058C177.682 103.639 177.707 110.478 178.73 117.205C178.73 117.439 178.812 117.664 178.857 117.898C180.277 125.232 173.206 107.916 173.397 100.519C173.588 93.1217 169.083 83.7247 174.953 76.7241C180.823 69.7236 202.346 65.6242 206.586 62.3357C210.827 59.0472 219.072 67.8046 228.6 71.03C238.129 74.2555 246.028 78.1026 244.827 91.482C243.625 104.861 244.89 106.654 244.945 113.7C244.945 113.718 240.54 112.078 235.526 121.376Z" fill="#263238"/>
<path d="M217.589 116.979C217.589 118.781 216.888 120.277 216.015 120.277C215.141 120.277 214.449 118.799 214.449 116.979C214.449 115.159 215.15 113.691 216.015 113.691C216.879 113.691 217.589 115.177 217.589 116.979Z" fill="#263238"/>
<path d="M193.427 116.979C193.427 118.781 192.727 120.277 191.862 120.277C190.998 120.277 190.297 118.799 190.297 116.979C190.297 115.159 190.998 113.691 191.862 113.691C192.727 113.691 193.427 115.177 193.427 116.979Z" fill="#263238"/>
<path d="M211.792 121.376C211.792 121.376 215.041 124.791 219.155 125.277" stroke="#263238" stroke-linecap="round" stroke-linejoin="round"/>
<path d="M189.659 125.277C189.659 125.277 195.601 124.863 196.939 121.376" stroke="#263238" stroke-linecap="round" stroke-linejoin="round"/>
<path d="M203.474 205.905C207.897 203.121 213.749 204.166 218.59 206.139C221.247 207.229 223.777 208.599 226.426 209.743C227.735 210.316 229.085 210.792 230.466 211.166C233.788 212.022 232.596 207.941 232.405 206.112C232.132 203.49 231.94 200.859 231.622 198.255C231.491 197.716 231.556 197.149 231.804 196.652C232.131 196.251 232.587 195.974 233.096 195.868C238.93 194.066 245.218 194.859 251.297 194.967C251.849 195.032 252.408 194.928 252.899 194.67C253.809 194.084 253.709 192.76 253.463 191.714C251.361 182.813 243.944 173.956 235.881 169.506" stroke="#263238" stroke-linecap="round" stroke-linejoin="round"/>
<path d="M199.505 170.947C195.492 172.605 191.37 174.326 187.911 176.866C186.657 177.772 185.501 178.805 184.462 179.948C183.626 180.736 183.1 181.793 182.979 182.93C183.001 183.459 183.143 183.976 183.393 184.444C183.644 184.911 183.997 185.318 184.426 185.633C185.037 186.13 185.71 186.548 186.428 186.876C188.103 187.66 190.068 188.426 190.778 190.093C190.951 190.442 191.014 190.834 190.96 191.219C190.87 191.557 190.694 191.867 190.451 192.12C189.067 193.787 186.628 195.075 186.81 197.228C186.929 198.895 188.63 199.931 190.141 200.67C191.652 201.409 193.417 202.175 193.936 203.769" stroke="#263238" stroke-linecap="round" stroke-linejoin="round"/>
<path d="M175.746 86.4636C176.337 82.8597 180.141 80.5352 183.8 79.9496C187.458 79.364 191.216 79.9496 194.902 79.6343C197.985 79.3327 200.966 78.3796 203.644 76.8392C206.323 75.2989 208.636 73.2073 210.428 70.7057" stroke="white" stroke-linecap="round" stroke-linejoin="round"/>
<path d="M179.886 76.3366C186.493 72.4715 195.776 76.4898 202.219 72.3633C204.042 71.0491 205.629 69.4411 206.915 67.6062" stroke="white" stroke-linecap="round" stroke-linejoin="round"/>
<path d="M264.165 224.194C240.503 228.87 231.676 246.106 231.676 246.106L203.646 289.812" stroke="#263238" stroke-linecap="round" stroke-linejoin="round"/>
<path d="M244.163 219.473C246.126 217.673 248.35 216.173 250.76 215.022" stroke="#263238" stroke-linecap="round" stroke-linejoin="round"/>
<path d="M227.618 252.467C227.618 252.467 230.603 236.682 239.175 225.05" stroke="#263238" stroke-linecap="round" stroke-linejoin="round"/>
<path d="M154.669 286.145C154.669 286.145 153.44 237.79 149.208 230.402" stroke="#263238" stroke-linecap="round" stroke-linejoin="round"/>
<path d="M253.499 191.696C253.499 191.696 267.15 199.805 273.211 207.427C279.272 215.049 293.596 220.113 296.872 230.402C296.872 230.402 278.007 289.253 258.241 310.525C238.474 331.797 227.59 340.527 227.59 340.527C227.59 340.527 180.04 332.346 149.199 306.705L160.229 281.613C160.229 281.613 191.325 285.505 203.62 289.83C215.914 294.154 227.59 320.345 227.59 320.345" stroke="#263238" stroke-linecap="round" stroke-linejoin="round"/>
<path d="M203.646 289.83C203.646 289.83 225.415 294.019 232.486 303.831" stroke="#263238" stroke-linecap="round" stroke-linejoin="round"/>
<path d="M266.286 299.92L250.761 367.538H155.706L152.466 343.906" stroke="#263238" stroke-linecap="round" stroke-linejoin="round"/>
<path d="M196.64 337.212C191.389 347.861 184.463 345.509 184.463 345.509C130.907 347.519 111.177 327.706 111.177 327.706C111.177 327.706 108.447 299.839 118.976 262.233C129.506 224.627 149.226 191.696 149.226 191.696C157.972 185.939 177.483 181.443 182.989 180.254L184.463 179.948" stroke="#263238" stroke-linecap="round" stroke-linejoin="round"/>
<path d="M184.49 345.509C184.49 345.509 181.66 345.05 182.379 326.472" stroke="#263238" stroke-linecap="round" stroke-linejoin="round"/>
<path d="M150.674 307.894C150.674 307.894 137.296 303.227 120.724 314.579" stroke="#263238" stroke-linecap="round" stroke-linejoin="round"/>
<path d="M123.727 303.831C123.727 303.831 141.254 298.668 149.208 306.939" stroke="#263238" stroke-linecap="round" stroke-linejoin="round"/>
<path d="M147.315 306.471L149.59 307.597L158.254 286.172C158.254 286.172 149.281 284.721 135.066 302.245C139.505 302.296 143.805 303.78 147.315 306.471Z" fill="#999999" stroke="#263238" stroke-miterlimit="10"/>
<path d="M182.352 326.472V335.995C182.352 335.995 194.61 339.599 203.684 334.418L182.352 326.472Z" fill="#999999" stroke="#263238" stroke-miterlimit="10"/>
<path d="M248.795 194.868C248.804 195.044 248.785 195.22 248.74 195.39C248.358 196.877 239.012 231.807 209.098 247.349C208.838 247.487 208.547 247.558 208.252 247.556C207.845 247.556 207.451 247.421 207.13 247.173C206.81 246.924 206.583 246.577 206.486 246.186C206.389 245.795 206.426 245.383 206.593 245.016C206.76 244.649 207.046 244.347 207.406 244.16C234.707 229.988 244.326 197.688 245.164 194.715L248.795 194.868Z" fill="#263238"/>
<path d="M184.427 185.606C179.698 196.299 177.147 207.811 176.919 219.482C176.919 220.428 176.919 221.392 176.919 222.374C176.919 222.618 176.919 222.861 176.919 223.104C176.648 223.113 176.377 223.141 176.109 223.185C175.124 223.339 174.17 223.643 173.279 224.086C173.279 222.762 173.279 221.474 173.279 220.203C173.67 199.985 179.767 186.228 183.016 180.281L184.491 179.975C183.654 180.763 183.128 181.82 183.007 182.957C183.034 183.475 183.175 183.98 183.421 184.437C183.666 184.895 184.009 185.294 184.427 185.606Z" fill="#263238"/>
<path d="M220.264 239.222C222.394 242.15 220.647 247.016 216.351 250.088C212.056 253.16 206.85 253.268 204.712 250.34C202.573 247.412 204.32 242.547 208.616 239.475C212.911 236.402 218.162 236.294 220.264 239.222Z" fill="white" stroke="#263238" stroke-linecap="round" stroke-linejoin="round"/>
<path d="M214.969 237.484C216.479 239.556 215.242 242.997 212.239 245.169C209.236 247.34 205.513 247.421 204.048 245.349C202.583 243.277 203.775 239.835 206.778 237.664C209.782 235.492 213.458 235.42 214.969 237.484Z" fill="white" stroke="#263238" stroke-linecap="round" stroke-linejoin="round"/>
<path d="M190.916 274.054C190.528 274.309 190.056 274.407 189.598 274.329C189.139 274.25 188.728 274.001 188.45 273.631C188.171 273.262 188.046 272.801 188.1 272.344C188.154 271.886 188.384 271.466 188.741 271.171C188.895 271.044 195.002 265.9 192.326 248.574C192.099 247.106 191.808 245.538 191.416 243.889C190.261 238.637 188.477 231.988 184.828 227.104C183.959 225.816 182.771 224.771 181.376 224.071C179.981 223.37 178.427 223.037 176.865 223.104C176.593 223.113 176.323 223.14 176.055 223.185C175.07 223.339 174.115 223.643 173.224 224.086C170.506 225.476 168.442 227.862 167.473 230.735L167.145 231.636C165.082 237.161 163.394 242.817 162.095 248.565C160.638 255.638 160.147 263.053 162.732 268.233C163.424 269.655 164.411 270.916 165.627 271.936C166.844 272.956 168.263 273.711 169.794 274.153C170.204 274.286 170.554 274.561 170.779 274.926C171.004 275.292 171.091 275.725 171.023 276.148C170.955 276.57 170.737 276.955 170.408 277.234C170.08 277.512 169.662 277.666 169.229 277.667C169.038 277.666 168.847 277.636 168.665 277.576C166.675 276.985 164.83 275.991 163.248 274.657C161.666 273.323 160.381 271.679 159.474 269.828C156.561 263.999 156.944 256.061 158.418 248.565C159.725 242.401 161.495 236.341 163.714 230.438L164.042 229.537C164.757 227.393 165.956 225.437 167.547 223.819C169.137 222.2 171.079 220.961 173.224 220.194C173.967 219.939 174.732 219.752 175.509 219.635C175.973 219.572 176.419 219.527 176.892 219.5C179.022 219.442 181.133 219.914 183.031 220.873C184.93 221.831 186.555 223.246 187.758 224.987C191.817 230.393 193.746 237.537 194.975 243.142C195.402 245.07 195.73 246.881 195.976 248.592C198.851 268.017 191.271 273.801 190.916 274.054Z" fill="#263238" stroke="#263238" stroke-miterlimit="10"/>
<path d="M167.955 277.351C167.955 277.351 174.553 280.054 176.227 277.351C177.902 274.648 176.546 273.378 174.262 273.162C171.985 273.046 169.704 273.046 167.427 273.162L167.955 277.351Z" fill="#263238" stroke="#263238" stroke-miterlimit="10"/>
<path d="M170.985 276.45C170.866 276.812 170.635 277.126 170.324 277.35C170.014 277.573 169.64 277.693 169.256 277.694C169.064 277.693 168.874 277.663 168.692 277.604C166.702 277.012 164.857 276.018 163.275 274.684C161.693 273.35 160.408 271.706 159.5 269.855C156.588 264.026 156.971 256.088 158.445 248.592H162.085C160.629 255.665 160.137 263.08 162.722 268.261C163.415 269.682 164.401 270.943 165.618 271.963C166.834 272.983 168.254 273.738 169.784 274.18C170.014 274.25 170.228 274.364 170.413 274.516C170.599 274.668 170.752 274.856 170.863 275.067C170.975 275.278 171.044 275.509 171.064 275.746C171.085 275.984 171.058 276.223 170.985 276.45Z" fill="white" stroke="#263238" stroke-linecap="round" stroke-linejoin="round"/>
<path d="M184.837 272.099C184.563 272.421 184.36 272.797 184.242 273.202C184.125 273.608 184.095 274.033 184.154 274.45C184.336 275.067 184.731 275.602 185.269 275.961C185.808 276.319 186.457 276.48 187.103 276.414C188.395 276.244 189.577 275.601 190.415 274.612C191.325 273.603 194.483 266.999 191.562 268.134C189.442 268.927 186.256 270.27 184.837 272.099Z" fill="#263238" stroke="#263238" stroke-miterlimit="10"/>
<path d="M190.915 274.054C190.528 274.309 190.056 274.407 189.597 274.329C189.139 274.25 188.728 274.001 188.449 273.632C188.171 273.262 188.046 272.801 188.1 272.344C188.154 271.886 188.383 271.466 188.74 271.171C188.895 271.045 195.001 265.9 192.326 248.574H195.966C198.851 268.017 191.27 273.802 190.915 274.054Z" fill="white" stroke="#263238" stroke-linecap="round" stroke-linejoin="round"/>
<path opacity="0.2" d="M207.242 114.808C207.242 114.808 218.7 108.915 229.229 114.808C229.229 114.808 229.402 123.502 225.425 127.079C224.014 128.349 217.553 128.566 215.105 128.349C205.167 127.457 207.242 114.808 207.242 114.808Z" fill="white"/>
<path opacity="0.2" d="M200.053 114.808C200.053 114.808 188.595 108.915 178.075 114.808C178.075 114.808 177.902 123.502 181.87 127.079C183.28 128.349 189.751 128.566 192.19 128.349C202.127 127.457 200.053 114.808 200.053 114.808Z" fill="white"/>
<path d="M207.242 114.808C207.242 114.808 218.7 108.915 229.229 114.808C229.229 114.808 229.402 123.502 225.425 127.079C224.014 128.349 217.553 128.566 215.105 128.349C205.167 127.457 207.242 114.808 207.242 114.808Z" stroke="#263238" stroke-miterlimit="10"/>
<path d="M200.053 114.808C200.053 114.808 188.595 108.915 178.075 114.808C178.075 114.808 177.902 123.502 181.87 127.079C183.28 128.349 189.751 128.566 192.19 128.349C202.127 127.457 200.053 114.808 200.053 114.808Z" stroke="#263238" stroke-miterlimit="10"/>
<path d="M200.052 114.808C200.052 114.808 202.619 112.943 207.242 114.808" stroke="#263238" stroke-miterlimit="10"/>
<path d="M229.229 114.808L234.015 117.006" stroke="#263238" stroke-miterlimit="10"/>
<path d="M45.9995 391.522L79.6804 360.024H346.998L367.238 391.522H45.9995Z" fill="white" stroke="#263238" stroke-linecap="round" stroke-linejoin="round"/>
<path d="M367.238 391.522H45.9995V400H367.238V391.522Z" fill="#263238" stroke="#263238" stroke-linecap="round" stroke-linejoin="round"/>
<path d="M79.6802 383.737V377.205H132.463V383.737H122.28H79.6802Z" fill="white" stroke="#263238" stroke-miterlimit="10"/>
<path d="M79.6802 377.206L110.858 356.501L152.466 357.474L132.463 377.206H79.6802Z" fill="white" stroke="#263238" stroke-linecap="round" stroke-linejoin="round"/>
<path d="M132.463 383.737L152.466 363.898V357.474L132.463 377.205V383.737Z" fill="white" stroke="#263238" stroke-linecap="round" stroke-linejoin="round"/>
<path d="M131.035 375.557C131.035 375.557 126.822 376.386 126.822 379.998C126.822 383.611 130.462 384.674 130.462 384.674" stroke="#263238" stroke-width="2" stroke-linecap="round" stroke-linejoin="round"/>
<path d="M126.821 375.557C126.821 375.557 122.607 376.386 122.607 379.998C122.607 383.611 126.248 384.674 126.248 384.674" stroke="#263238" stroke-width="2" stroke-linecap="round" stroke-linejoin="round"/>
<path d="M122.608 375.557C122.608 375.557 118.394 376.386 118.394 379.998C118.394 383.611 122.034 384.674 122.034 384.674" stroke="#263238" stroke-width="2" stroke-linecap="round" stroke-linejoin="round"/>
<path d="M118.394 375.557C118.394 375.557 114.18 376.386 114.18 379.998C114.18 383.611 117.82 384.674 117.82 384.674" stroke="#263238" stroke-width="2" stroke-linecap="round" stroke-linejoin="round"/>
<path d="M114.18 375.557C114.18 375.557 109.967 376.386 109.967 379.998C109.967 383.611 113.607 384.674 113.607 384.674" stroke="#263238" stroke-width="2" stroke-linecap="round" stroke-linejoin="round"/>
<path d="M109.966 375.557C109.966 375.557 105.752 376.386 105.752 379.998C105.752 383.611 109.393 384.674 109.393 384.674" stroke="#263238" stroke-width="2" stroke-linecap="round" stroke-linejoin="round"/>
<path d="M105.753 375.557C105.753 375.557 101.54 376.386 101.54 379.998C101.54 383.611 105.18 384.674 105.18 384.674" stroke="#263238" stroke-width="2" stroke-linecap="round" stroke-linejoin="round"/>
<path d="M101.54 375.557C101.54 375.557 97.3267 376.386 97.3267 379.998C97.3267 383.611 100.967 384.674 100.967 384.674" stroke="#263238" stroke-width="2" stroke-linecap="round" stroke-linejoin="round"/>
<path d="M96.8078 375.557C96.8078 375.557 92.5942 376.386 92.5942 379.998C92.5942 383.611 96.2344 384.674 96.2344 384.674" stroke="#263238" stroke-width="2" stroke-linecap="round" stroke-linejoin="round"/>
<path d="M92.0666 375.557C92.0666 375.557 87.853 376.386 87.853 379.998C87.853 383.611 91.4932 384.674 91.4932 384.674" stroke="#263238" stroke-width="2" stroke-linecap="round" stroke-linejoin="round"/>
<path d="M86.797 375.557C86.797 375.557 82.5835 376.386 82.5835 379.998C82.5835 383.611 86.2237 384.674 86.2237 384.674" stroke="#263238" stroke-width="2" stroke-linecap="round" stroke-linejoin="round"/>
<path d="M113.507 361.574C110.6 363.161 108.296 365.644 106.945 368.646C110.777 367.448 113.807 364.745 116.71 362.042L113.561 369.772C115.011 369.656 116.412 369.203 117.652 368.45C118.892 367.697 119.934 366.665 120.696 365.439C120.447 365.545 120.223 365.703 120.039 365.901C119.855 366.099 119.716 366.333 119.63 366.589C119.544 366.844 119.514 367.114 119.541 367.382C119.567 367.649 119.651 367.908 119.786 368.142C122.425 367.763 124.109 365.241 125.438 362.952C125.682 364.225 125.776 365.522 125.72 366.817C127.927 367.13 130.178 366.847 132.236 365.997" stroke="#263238" stroke-width="0.75" stroke-linecap="round" stroke-linejoin="round"/>
<path d="M345.215 328.472H253.473V378.341H345.215V328.472Z" fill="white" stroke="#263238" stroke-linecap="round" stroke-linejoin="round"/>
<path d="M253.117 378.331L238.365 364.448V314.579L253.117 328.472V378.331Z" fill="white" stroke="#263238" stroke-linecap="round" stroke-linejoin="round"/>
<path d="M345.214 328.472L330.462 314.579H238.729L253.472 328.472H345.214Z" fill="white" stroke="#263238" stroke-linecap="round" stroke-linejoin="round"/>
<path d="M311.479 347.176H303.37V338.779H291.94V347.176H283.094V358.492H291.94V366.88H303.37V358.492H311.479V347.176Z" fill="#2B69B7" stroke="#263238" stroke-miterlimit="10"/>
<path d="M298.547 328.472L283.795 314.579" stroke="#263238" stroke-linecap="round" stroke-linejoin="round"/>
<path d="M104.63 116.524C115.331 105.93 115.331 88.7533 104.63 78.1591C93.929 67.5649 76.5792 67.5649 65.8783 78.1591C55.1773 88.7533 55.1773 105.93 65.8783 116.524C76.5792 127.118 93.929 127.118 104.63 116.524Z" fill="white" stroke="#263238" stroke-linecap="round" stroke-linejoin="round"/>
<path d="M108.047 93.1848C108.047 95.0007 107.471 96.7709 106.402 98.2464C105.333 99.7219 103.823 100.829 102.086 101.411L89.8458 105.492L74.9483 110.474C72.7537 111.189 70.3629 111.015 68.2969 109.992C66.2309 108.969 64.6573 107.178 63.9188 105.011C63.1804 102.844 63.337 100.476 64.3546 98.4226C65.3723 96.3694 67.1684 94.7976 69.3515 94.0497L82.8839 89.5449L96.48 85.0401C97.7954 84.6021 99.197 84.4796 100.57 84.6827C101.942 84.8858 103.246 85.4087 104.375 86.2083C105.503 87.008 106.424 88.0615 107.061 89.2822C107.697 90.503 108.032 91.8559 108.038 93.2298L108.047 93.1848Z" fill="white"/>
<path d="M108.046 93.1848C108.046 95.0008 107.471 96.771 106.401 98.2465C105.332 99.722 103.823 100.829 102.085 101.411L89.8452 105.492C89.5188 99.5221 87.0499 93.8636 82.8833 89.5359L96.4794 85.0311C97.7948 84.5931 99.1964 84.4706 100.569 84.6737C101.941 84.8768 103.246 85.3997 104.374 86.1994C105.503 86.999 106.423 88.0526 107.06 89.2733C107.697 90.494 108.032 91.847 108.037 93.2209L108.046 93.1848Z" fill="#2B69B7"/>
<path d="M108.047 93.1848C108.047 95.0007 107.471 96.7709 106.402 98.2464C105.333 99.7219 103.823 100.829 102.086 101.411L89.8458 105.492L74.9483 110.474C72.7537 111.189 70.3629 111.015 68.2969 109.992C66.2309 108.969 64.6573 107.178 63.9188 105.011C63.1804 102.844 63.337 100.476 64.3546 98.4226C65.3723 96.3694 67.1684 94.7976 69.3515 94.0497L82.8839 89.5449L96.48 85.0401C97.7954 84.6021 99.197 84.4796 100.57 84.6827C101.942 84.8858 103.246 85.4087 104.375 86.2083C105.503 87.008 106.424 88.0615 107.061 89.2822C107.697 90.503 108.032 91.8559 108.038 93.2298L108.047 93.1848Z" stroke="#263238" stroke-linecap="round" stroke-linejoin="round"/>
<path d="M89.8452 105.492C89.5666 99.5109 87.0909 93.8366 82.8833 89.5358" stroke="#263238" stroke-linecap="round" stroke-linejoin="round"/>
<path d="M105.117 89.9503C105.691 90.9085 105.981 92.0077 105.954 93.1217" stroke="white" stroke-linecap="round" stroke-linejoin="round"/>
<path d="M86.3418 90.8514L97.2624 87.2475C98.2419 86.915 99.2837 86.8015 100.313 86.9152C101.342 87.0289 102.333 87.367 103.214 87.9052" stroke="white" stroke-linecap="round" stroke-linejoin="round"/>
<path d="M271.439 60.539C285.376 54.6993 291.892 38.7802 285.993 24.9827C280.095 11.1852 264.015 4.73404 250.079 10.5737C236.142 16.4134 229.626 32.3324 235.524 46.13C241.423 59.9275 257.503 66.3786 271.439 60.539Z" fill="white" stroke="#263238" stroke-linecap="round" stroke-linejoin="round"/>
<path d="M270.208 46.9111L246.31 38.9916C244.323 38.3303 242.683 36.9149 241.749 35.0565C240.816 33.1981 240.666 31.0488 241.332 29.081C242 27.1137 243.43 25.4895 245.307 24.5654C247.184 23.6412 249.355 23.4928 251.343 24.1527L275.241 32.0632C277.226 32.7266 278.865 34.1423 279.798 36C280.732 37.8578 280.883 40.006 280.219 41.9738C279.55 43.9413 278.121 45.5661 276.245 46.4917C274.368 47.4173 272.197 47.5681 270.208 46.9111Z" fill="#2B69B7"/>
<path d="M252.699 38.3611L256.703 28.8919" stroke="#263238" stroke-linecap="round" stroke-linejoin="round"/>
<path d="M265.867 42.6947L269.853 33.2526" stroke="#263238" stroke-linecap="round" stroke-linejoin="round"/>
<path d="M256.002 38.9197C256.449 38.9197 256.812 38.5607 256.812 38.1178C256.812 37.675 256.449 37.316 256.002 37.316C255.555 37.316 255.192 37.675 255.192 38.1178C255.192 38.5607 255.555 38.9197 256.002 38.9197Z" fill="#263238"/>
<path d="M263.965 40.4783C263.965 40.6369 263.918 40.7919 263.829 40.9238C263.74 41.0557 263.613 41.1584 263.465 41.2191C263.317 41.2798 263.154 41.2957 262.997 41.2648C262.84 41.2338 262.696 41.1575 262.582 41.0453C262.469 40.9332 262.392 40.7903 262.361 40.6348C262.33 40.4792 262.346 40.318 262.407 40.1715C262.468 40.0249 262.572 39.8997 262.705 39.8116C262.838 39.7235 262.995 39.6765 263.155 39.6765C263.37 39.6765 263.576 39.7609 263.728 39.9113C263.88 40.0617 263.965 40.2656 263.965 40.4783Z" fill="#263238"/>
<path d="M259.142 31.7839C259.589 31.7839 259.952 31.4249 259.952 30.982C259.952 30.5391 259.589 30.1801 259.142 30.1801C258.695 30.1801 258.332 30.5391 258.332 30.982C258.332 31.4249 258.695 31.7839 259.142 31.7839Z" fill="#263238"/>
<path d="M266.986 33.2705C266.986 33.4291 266.938 33.5841 266.849 33.7159C266.76 33.8478 266.634 33.9506 266.486 34.0113C266.338 34.072 266.175 34.0878 266.018 34.0569C265.861 34.026 265.716 33.9496 265.603 33.8375C265.49 33.7253 265.413 33.5824 265.381 33.4269C265.35 33.2713 265.366 33.1101 265.427 32.9636C265.489 32.8171 265.592 32.6918 265.726 32.6037C265.859 32.5156 266.015 32.4686 266.176 32.4686C266.39 32.4686 266.596 32.5531 266.748 32.7035C266.9 32.8538 266.986 33.0578 266.986 33.2705Z" fill="#263238"/>
<path d="M270.208 46.9111L246.31 38.9916C244.323 38.3303 242.683 36.9149 241.749 35.0565C240.816 33.1981 240.666 31.0488 241.332 29.081C242 27.1137 243.43 25.4895 245.307 24.5654C247.184 23.6412 249.355 23.4928 251.343 24.1527L275.241 32.0632C277.226 32.7266 278.865 34.1423 279.798 36C280.732 37.8578 280.883 40.006 280.219 41.9738C279.55 43.9413 278.121 45.5661 276.245 46.4917C274.368 47.4173 272.197 47.5681 270.208 46.9111Z" stroke="#263238" stroke-linecap="round" stroke-linejoin="round"/>
<path d="M157.316 61.2094C172.45 61.2094 184.718 49.0637 184.718 34.0813C184.718 19.0989 172.45 6.95319 157.316 6.95319C142.183 6.95319 129.915 19.0989 129.915 34.0813C129.915 49.0637 142.183 61.2094 157.316 61.2094Z" fill="white" stroke="#263238" stroke-linecap="round" stroke-linejoin="round"/>
<path d="M173.015 34.7751V45.8931C173.015 48.7131 171.195 51.0015 168.966 51.0015H145.668C143.43 51.0015 141.619 48.7131 141.619 45.8931V34.7751C141.619 31.9551 143.439 29.6667 145.668 29.6667H149.5V23.2157H164.971V29.6667H168.938C171.195 29.6667 173.015 31.9551 173.015 34.7751Z" fill="white" stroke="#263238" stroke-linecap="round" stroke-linejoin="round"/>
<path d="M173.006 36.0545H141.619V42.9469H173.006V36.0545Z" fill="#2B69B7" stroke="#263238" stroke-miterlimit="10"/>
<path d="M151.638 15.6656H163.141C164.439 15.6656 165.684 16.1763 166.603 17.0853C167.521 17.9944 168.037 19.2273 168.037 20.5128V25.5492H146.732V20.5128C146.732 19.8755 146.859 19.2445 147.106 18.6558C147.353 18.0671 147.714 17.5324 148.17 17.0822C148.625 16.6319 149.166 16.2751 149.761 16.032C150.356 15.7889 150.994 15.6644 151.638 15.6656Z" fill="#2B69B7" stroke="#263238" stroke-miterlimit="10"/>
<path d="M150.455 15.972V25.5493" stroke="#263238" stroke-linecap="round" stroke-linejoin="round"/>
<path d="M155.487 15.6656V25.5492" stroke="#263238" stroke-linecap="round" stroke-linejoin="round"/>
<path d="M160.52 15.6656V25.5492" stroke="#263238" stroke-linecap="round" stroke-linejoin="round"/>
<path d="M165.552 16.2242V25.5492" stroke="#263238" stroke-linecap="round" stroke-linejoin="round"/>
<path d="M87.1138 182.385C89.562 167.6 79.4402 153.65 64.5061 151.226C49.5719 148.802 35.4808 158.823 33.0325 173.608C30.5843 188.393 40.7061 202.344 55.6402 204.767C70.5743 207.191 84.6655 197.17 87.1138 182.385Z" fill="white" stroke="#263238" stroke-linecap="round" stroke-linejoin="round"/>
<path d="M73.9735 184.995C76.958 178.747 72.8543 170.628 64.8076 166.86C56.7609 163.093 47.8183 165.104 44.8337 171.352C41.8492 177.6 45.9528 185.719 53.9995 189.486C62.0463 193.254 70.9889 191.243 73.9735 184.995Z" fill="#2B69B7" stroke="#263238" stroke-linecap="round" stroke-linejoin="round"/>
<path d="M74.9684 182.87C77.7682 177.009 73.5148 169.203 65.468 165.436C57.4213 161.668 48.6285 163.366 45.8287 169.227C43.0289 175.088 47.2824 182.894 55.3291 186.661C63.3759 190.428 72.1687 188.731 74.9684 182.87Z" fill="#2B69B7" stroke="#263238" stroke-linecap="round" stroke-linejoin="round"/>
<path d="M65.0469 168.028L55.1001 181.876" stroke="#263238" stroke-linecap="round" stroke-linejoin="round"/>
<path d="M59.0586 165.785C60.3917 165.963 61.7049 166.264 62.9809 166.686" stroke="white" stroke-linecap="round" stroke-linejoin="round"/>
<path d="M50.2221 178.822C50.2221 178.822 45.144 173.317 50.1038 168.01C51.2483 166.855 52.7388 166.097 54.3537 165.848" stroke="white" stroke-linecap="round" stroke-linejoin="round"/>
<path d="M375.749 182.401C378.197 167.616 368.075 153.665 353.141 151.241C338.207 148.818 324.116 158.838 321.667 173.623C319.219 188.409 329.341 202.359 344.275 204.783C359.209 207.207 373.3 197.186 375.749 182.401Z" fill="white" stroke="#263238" stroke-linecap="round" stroke-linejoin="round"/>
<path d="M364.435 180.732C364.226 181.029 364.017 181.335 363.798 181.633C359.694 187.264 353.369 192.516 348.682 193.553V193.48C344.132 192.471 338.007 187.471 333.903 182.011C333.676 181.714 333.457 181.407 333.248 181.11C329.298 175.506 327.633 169.623 332.028 167.19C340.965 162.253 348.682 172.839 348.682 172.839C348.682 172.839 356.418 162.334 365.336 167.262C369.613 169.623 368.148 175.263 364.435 180.732Z" fill="#2B69B7" stroke="#263238" stroke-miterlimit="10"/>
<path d="M364.435 180.732C364.226 181.029 364.016 181.335 363.798 181.633H361.541L358.956 185.011L357.2 174.993L354.47 181.804H348.018L344.714 187.255L342.166 176.218L338.881 181.975H333.903C333.675 181.678 333.457 181.371 333.248 181.074H338.353L342.53 173.749L345.096 184.876L347.526 180.867H353.897L357.537 171.641L359.484 182.777L361.077 180.696L364.435 180.732Z" fill="white"/>
<path d="M322.327 124.773C337.46 124.773 349.728 112.627 349.728 97.6445C349.728 82.6621 337.46 70.5164 322.327 70.5164C307.193 70.5164 294.925 82.6621 294.925 97.6445C294.925 112.627 307.193 124.773 322.327 124.773Z" fill="white" stroke="#263238" stroke-linecap="round" stroke-linejoin="round"/>
<path d="M320.27 85.1031C320.533 85.6887 318.886 86.9861 316.629 88.0042C314.372 89.0223 312.261 89.3737 311.997 88.779C311.733 88.1844 313.371 86.896 315.637 85.8779C317.903 84.8598 319.996 84.5445 320.27 85.1031Z" fill="white" stroke="#263238" stroke-linecap="round" stroke-linejoin="round"/>
<path d="M332.601 110.267L324.401 114.195L317.048 99.2032L311.97 88.8421L320.17 84.9049L325.12 95.0137L332.601 110.267Z" fill="white" stroke="#263238" stroke-linecap="round" stroke-linejoin="round"/>
<path d="M313.49 91.9323L317.048 90.3016L313.49 91.9323Z" fill="#2B69B7"/>
<path d="M313.49 91.9323L317.048 90.3016" stroke="#263238" stroke-linecap="round" stroke-linejoin="round"/>
<path d="M315.038 95.1939L318.596 93.5631L315.038 95.1939Z" fill="#2B69B7"/>
<path d="M315.038 95.1939L318.596 93.5631" stroke="#263238" stroke-linecap="round" stroke-linejoin="round"/>
<path d="M327.542 112.691L331.773 118.187L329.662 111.673L327.542 112.691Z" fill="white" stroke="#263238" stroke-linecap="round" stroke-linejoin="round"/>
<path d="M332.601 110.267C330.681 112.17 328.232 113.462 325.566 113.979L324.402 114.195L317.048 99.2032L325.12 95.0137L332.601 110.267Z" fill="#2B69B7" stroke="#263238" stroke-miterlimit="10"/>
<path d="M318.595 102.05L321.944 100.519" stroke="#263238" stroke-linecap="round" stroke-linejoin="round"/>
<path d="M320.434 105.537L323.719 104.051L320.434 105.537Z" fill="#2B69B7"/>
<path d="M320.434 105.537L323.719 104.051" stroke="#263238" stroke-linecap="round" stroke-linejoin="round"/>
<path d="M314.81 87.4726L312.216 81.6974L314.255 80.5532L317.049 86.4005L314.81 87.4726Z" fill="white" stroke="#263238" stroke-linecap="round" stroke-linejoin="round"/>
<path d="M319.26 79.8506L318.641 78.4991L307.721 83.3373L308.34 84.6888C308.594 85.2654 311.243 84.6347 314.264 83.3013C317.285 81.9678 319.515 80.4182 319.26 79.8506Z" fill="white" stroke="#263238" stroke-linecap="round" stroke-linejoin="round"/>
<path d="M318.641 78.4992C318.386 77.9315 315.729 78.5532 312.717 79.8866C309.704 81.2201 307.466 82.7697 307.72 83.3373C307.975 83.905 310.633 83.2833 313.645 81.9408C316.657 80.5984 318.896 79.0668 318.641 78.4992Z" fill="white" stroke="#263238" stroke-linecap="round" stroke-linejoin="round"/>
</svg>
