<svg width="32" height="32" viewBox="0 0 32 32" fill="none" xmlns="http://www.w3.org/2000/svg">
<path d="M16 0C7.17733 0 0 7.17733 0 16C0 24.8227 7.17733 32 16 32H32V16C32 7.17733 24.8227 0 16 0ZM29.3333 29.3333H16C8.648 29.3333 2.66667 23.352 2.66667 16C2.66667 8.648 8.648 2.66667 16 2.66667C23.352 2.66667 29.3333 8.648 29.3333 16V29.3333ZM18 16C18 17.104 17.104 18 16 18C14.896 18 14 17.104 14 16C14 14.896 14.896 14 16 14C17.104 14 18 14.896 18 16ZM24.6667 16C24.6667 17.104 23.7707 18 22.6667 18C21.5627 18 20.6667 17.104 20.6667 16C20.6667 14.896 21.5627 14 22.6667 14C23.7707 14 24.6667 14.896 24.6667 16ZM11.3333 16C11.3333 17.104 10.4373 18 9.33333 18C8.22933 18 7.33333 17.104 7.33333 16C7.33333 14.896 8.22933 14 9.33333 14C10.4373 14 11.3333 14.896 11.3333 16Z" fill="white"/>
</svg>
